<svg width="166" height="146" viewBox="0 0 166 146" fill="none" xmlns="http://www.w3.org/2000/svg">
<path d="M165.916 36.2942V129.622C165.916 138.21 158.949 145.177 150.362 145.177H15.5546C6.96719 145.177 0 138.21 0 129.622V36.2942C0 27.7067 6.96719 20.7395 15.5546 20.7395H44.0715L48.0574 10.0781C50.3258 4.01828 56.1264 0 62.6075 0H103.276C109.757 0 115.558 4.01828 117.826 10.0781L121.845 20.7395H150.362C158.949 20.7395 165.916 27.7067 165.916 36.2942ZM121.845 82.9581C121.845 61.5057 104.411 44.0715 82.9581 44.0715C61.5057 44.0715 44.0715 61.5057 44.0715 82.9581C44.0715 104.411 61.5057 121.845 82.9581 121.845C104.411 121.845 121.845 104.411 121.845 82.9581ZM111.475 82.9581C111.475 98.6748 98.6748 111.475 82.9581 111.475C67.2415 111.475 54.4413 98.6748 54.4413 82.9581C54.4413 67.2415 67.2415 54.4413 82.9581 54.4413C98.6748 54.4413 111.475 67.2415 111.475 82.9581Z" fill="#e11d48"/>
</svg>
